# xmcd CD database file generated by LOLA_Freedb v0.9beta0
# 
# Track frame offsets:
#      150
#      12653
#      28838
#      53216
#      70411
#      94693
#      105613
#      120169
#      136189
#      146524
#      165598
#      193054
# 
# Disc length: 2780 seconds
# 
# Revision: 0 
# Processed by: cddbd v1.5.2PL0 Copyright (c) Steve Scherf et al.
# Submitted via: LOLA_Freedb v0.9beta0
# 
DISCID=a30ada0c
DTITLE=Bob Dylan - Greatest Hits
DYEAR=1900
DGENRE=
TTITLE0=Blowin´in the wind
TTITLE1=Don´t think twice. It´s all right
TTITLE2=Queen Jane approximately
TTITLE3=Maggie`Farm
TTITLE4=Mr. Tambourine Man
TTITLE5=Bob Dylan´s Blues
TTITLE6=The Times they are a-changin´
TTITLE7=It ain´t me babe
TTITLE8=Subtersitedranean Homesick blues
TTITLE9=It´all over now, Baby Blue
TTITLE10=Like a rolling Stone
TTITLE11=Highway 61 revi
EXTD=
EXTT0=
EXTT1=
EXTT2=
EXTT3=
EXTT4=
EXTT5=
EXTT6=
EXTT7=
EXTT8=
EXTT9=
EXTT10=
EXTT11=
PLAYORDER=
